<?xml version="1.0" encoding="UTF-8" standalone="no"?>
<!DOCTYPE svg PUBLIC "-//W3C//DTD SVG 1.1//EN" "http://www.w3.org/Graphics/SVG/1.1/DTD/svg11.dtd">
<svg xmlns="http://www.w3.org/2000/svg" xmlns:dc="http://purl.org/dc/elements/1.1/" xmlns:xl="http://www.w3.org/1999/xlink" version="1.1" viewBox="49.5 13.5 901 251" width="901" height="251">
  <defs>
    <linearGradient x1="0" x2="1" id="Gradient" gradientUnits="userSpaceOnUse">
      <stop offset="0" stop-color="#007aff"/>
      <stop offset="1" stop-color="#009fe3"/>
    </linearGradient>
    <linearGradient id="Obj_Gradient" xl:href="#Gradient" gradientTransform="translate(333.3734 427.6057) rotate(-60) scale(666.50635)"/>
  </defs>
  <metadata> Produced by OmniGraffle 7.17 
    <dc:date>2020-07-25 10:16:05 +0000</dc:date>
  </metadata>
  <g id="Canvas_1" stroke="none" fill="none" stroke-dasharray="none" stroke-opacity="1" fill-opacity="1">
    <title>Canvas 1</title>
    <g id="Canvas_1: Header">
      <title>Header</title>
      <g id="Graphic_2">
        <title>Background</title>
        <path d="M 56 14 L 944 14 C 947.3137 14 950 16.686292 950 20 L 950 258 C 950 261.3137 947.3137 264 944 264 L 56 264 C 52.68629 264 50 261.3137 50 258 L 50 20 C 50 16.686292 52.68629 14 56 14 Z" fill="url(#Obj_Gradient)"/>
        <path d="M 56 14 L 944 14 C 947.3137 14 950 16.686292 950 20 L 950 258 C 950 261.3137 947.3137 264 944 264 L 56 264 C 52.68629 264 50 261.3137 50 258 L 50 20 C 50 16.686292 52.68629 14 56 14 Z" stroke="#00a7ef" stroke-linecap="round" stroke-linejoin="round" stroke-width="1"/>
      </g>
      <g id="Graphic_33">
        <title>Text</title>
        <path d="M 130.43897 106.0294 L 113.53906 106.0294 L 113.53906 89.65526 L 104 89.65526 L 104 131.56704 L 113.53906 131.56704 L 113.53906 114.29158 L 130.43897 114.29158 L 130.43897 131.56704 L 139.97803 131.56704 L 139.97803 89.65526 L 130.43897 89.65526 Z M 171.52453 111.13693 L 157.70416 111.13693 C 157.97957 108.78345 158.69937 107.03088 159.8636 105.87918 C 161.02782 104.72748 162.61138 104.15163 164.61435 104.15163 C 166.6173 104.15163 168.20088 104.72748 169.3651 105.87918 C 170.52932 107.03088 171.24913 108.78345 171.52453 111.13693 Z M 180.61293 120.30044 L 171.59964 120.30044 C 171.32424 121.87777 170.62321 123.11082 169.49654 123.99964 C 168.36988 124.88845 166.86768 125.33285 164.9899 125.33285 C 162.63642 125.33285 160.82752 124.58175 159.56315 123.07953 C 158.29878 121.57731 157.62905 119.27394 157.55394 116.16935 L 180.76315 116.16935 L 180.76315 114.81735 C 180.76315 111.41232 180.27494 108.58318 179.2985 106.32984 C 178.32205 104.07651 177.0577 102.29265 175.5054 100.9782 C 173.9531 99.66376 172.21932 98.7374 170.30398 98.19911 C 168.38865 97.66081 166.49212 97.39167 164.61435 97.39167 C 162.6865 97.39167 160.76493 97.66707 158.8496 98.21789 C 156.93427 98.7687 155.20674 99.71383 153.66696 101.05332 C 152.12718 102.3928 150.87535 104.18292 149.91142 106.42373 C 148.9475 108.66455 148.46554 111.46239 148.46554 114.81735 C 148.46554 118.12224 148.93498 120.89505 149.87387 123.13587 C 150.81276 125.37668 152.05207 127.17306 153.59185 128.52506 C 155.13163 129.87706 156.87793 130.84723 158.83082 131.4356 C 160.78371 132.02397 162.7616 132.31815 164.76457 132.31815 C 165.79109 132.31815 166.8614 132.24304 167.97555 132.09282 C 169.0897 131.9426 170.19757 131.67971 171.2992 131.30416 C 172.40083 130.9286 173.46489 130.44665 174.4914 129.85827 C 175.51792 129.2699 176.44428 128.52506 177.2705 127.62373 C 178.09672 126.7224 178.804 125.67086 179.39238 124.46908 C 179.98075 123.2673 180.3876 121.87777 180.61293 120.30044 Z M 188.0489 131.56704 L 197.36262 131.56704 L 197.36262 81.84375 L 188.0489 81.84375 Z M 206.67635 131.56704 L 215.99008 131.56704 L 215.99008 81.84375 L 206.67635 81.84375 Z M 240.32595 124.73197 L 240.32595 124.73197 C 237.89736 124.73197 236.06342 123.8995 234.8241 122.23454 C 233.58476 120.56957 232.9651 118.0972 232.9651 114.81735 C 232.9651 111.48743 233.58476 109.01506 234.8241 107.40017 C 236.06342 105.78528 237.89736 104.97785 240.32595 104.97785 C 242.75454 104.97785 244.58848 105.78528 245.8278 107.40017 C 247.06714 109.01506 247.6868 111.48743 247.6868 114.81735 C 247.6868 118.0972 247.06714 120.56957 245.8278 122.23454 C 244.58848 123.8995 242.75454 124.73197 240.32595 124.73197 Z M 240.32595 132.31815 L 240.32595 132.31815 C 242.30387 132.31815 244.28803 132.04275 246.27847 131.49193 C 248.26892 130.94112 250.07156 129.99598 251.68644 128.6565 C 253.30133 127.31702 254.61576 125.5269 255.62976 123.28609 C 256.64376 121.04527 257.15075 118.22239 257.15075 114.81735 C 257.15075 111.41232 256.64376 108.58944 255.62976 106.34862 C 254.61576 104.10781 253.30133 102.32395 251.68644 100.99698 C 250.07156 99.67002 248.26892 98.7374 246.27847 98.19911 C 244.28803 97.66081 242.30387 97.39167 240.32595 97.39167 C 238.34802 97.39167 236.36387 97.66081 234.37342 98.19911 C 232.38298 98.7374 230.58034 99.67002 228.96545 100.99698 C 227.35056 102.32395 226.03614 104.10781 225.02214 106.34862 C 224.00814 108.58944 223.50115 111.41232 223.50115 114.81735 C 223.50115 118.22239 224.00814 121.04527 225.02214 123.28609 C 226.03614 125.5269 227.35056 127.31702 228.96545 128.6565 C 230.58034 129.99598 232.38298 130.94112 234.37342 131.49193 C 236.36387 132.04275 238.34802 132.31815 240.32595 132.31815 Z M 265.63826 131.56704 L 275.55287 131.56704 L 275.55287 121.65243 L 265.63826 121.65243 Z M 104 159.65244 L 109.78353 159.65244 L 109.78353 189.24606 L 104 189.24606 L 104 195.40514 L 125.10611 195.40514 L 125.10611 189.24606 L 119.32259 189.24606 L 119.32259 159.65244 L 125.10611 159.65244 L 125.10611 153.49336 L 104 153.49336 Z M 138.17538 160.40355 L 133.06785 171.06927 L 137.6496 171.06927 L 142.98246 160.40355 L 142.98246 150.48894 L 133.06785 150.48894 L 133.06785 160.40355 Z M 201.4937 174.7497 L 201.4937 174.7497 C 201.4937 171.94555 201.16823 169.66721 200.51727 167.91462 C 199.8663 166.16203 199.01506 164.79127 197.9635 163.8023 C 196.91195 162.81335 195.72897 162.13736 194.41452 161.77432 C 193.10008 161.41128 191.7794 161.22977 190.45243 161.22977 C 189.12547 161.22977 187.9112 161.36121 186.80956 161.6241 C 185.70793 161.88699 184.71899 162.25002 183.8427 162.7132 C 182.9664 163.17639 182.184 163.72094 181.49548 164.34686 C 180.80696 164.97279 180.21234 165.63626 179.7116 166.3373 C 179.21086 165.33581 178.60998 164.50335 177.90894 163.83986 C 177.2079 163.17638 176.44429 162.65061 175.61807 162.26254 C 174.79185 161.87447 173.93434 161.60532 173.04553 161.4551 C 172.15671 161.30488 171.27417 161.22977 170.39787 161.22977 C 169.04587 161.22977 167.8316 161.36747 166.755 161.64288 C 165.67841 161.91828 164.72702 162.28757 163.9008 162.75076 C 163.07457 163.21394 162.35477 163.75223 161.74136 164.36564 C 161.12796 164.97905 160.60844 165.63626 160.18282 166.3373 L 160.18282 161.98087 L 151.92064 161.98087 L 151.92064 195.40514 L 161.23437 195.40514 L 161.23437 171.67016 C 161.7351 171.06927 162.46743 170.50594 163.43135 169.98017 C 164.39528 169.45439 165.59078 169.1915 167.0179 169.1915 C 168.01937 169.1915 168.84558 169.34798 169.49654 169.66095 C 170.1475 169.9739 170.66076 170.43083 171.03631 171.03172 C 171.41187 171.6326 171.67475 172.3837 171.82498 173.28504 C 171.9752 174.18637 172.0503 175.2254 172.0503 176.40213 L 172.0503 195.40514 L 181.36404 195.40514 L 181.36404 174.7497 C 181.36404 174.17384 181.35152 173.64182 181.32648 173.1536 C 181.30144 172.66537 181.2639 172.1709 181.21382 171.67016 C 181.78967 171.06927 182.5658 170.50594 183.54225 169.98017 C 184.5187 169.45439 185.72045 169.1915 187.14756 169.1915 C 188.14904 169.1915 188.97525 169.34798 189.62622 169.66095 C 190.27718 169.9739 190.79043 170.43709 191.16599 171.0505 C 191.54154 171.6639 191.80443 172.42126 191.95465 173.3226 C 192.10487 174.22393 192.17998 175.25043 192.17998 176.40213 L 192.17998 195.40514 L 201.4937 195.40514 Z M 224.70292 181.96032 L 224.70292 181.96032 C 224.70292 184.48906 225.04717 186.64848 225.7357 188.43862 C 226.4242 190.22877 227.42568 191.69342 228.74012 192.8326 C 230.05456 193.97179 231.6444 194.81051 233.50965 195.3488 C 235.3749 195.8871 237.49677 196.15625 239.87528 196.15625 C 242.22877 196.15625 244.40695 195.88085 246.40992 195.33003 C 248.41288 194.77922 250.16544 193.75271 251.66767 192.2505 C 252.79433 191.12383 253.65184 189.71551 254.2402 188.02552 C 254.82858 186.33552 255.12276 184.21366 255.12276 181.65988 L 255.12276 153.49336 L 228.90912 153.49336 L 228.90912 161.68043 L 245.5837 161.68043 L 245.5837 181.88521 C 245.5837 184.28877 245.108 185.97874 244.1566 186.95519 C 243.2052 187.93163 241.7781 188.41985 239.87528 188.41985 C 237.94743 188.41985 236.51408 187.93163 235.5752 186.95519 C 234.6363 185.97874 234.16687 184.28877 234.16687 181.88521 L 234.16687 178.12968 L 224.70292 178.12968 Z M 279.75907 188.57007 L 279.75907 188.57007 C 277.33048 188.57007 275.49655 187.7376 274.2572 186.07264 C 273.01788 184.40767 272.39822 181.9353 272.39822 178.65545 C 272.39822 175.32553 273.01788 172.85316 274.2572 171.23827 C 275.49655 169.62338 277.33048 168.81595 279.75907 168.81595 C 282.18767 168.81595 284.0216 169.62338 285.26093 171.23827 C 286.50027 172.85316 287.11992 175.32553 287.11992 178.65545 C 287.11992 181.9353 286.50027 184.40767 285.26093 186.07264 C 284.0216 187.7376 282.18767 188.57007 279.75907 188.57007 Z M 279.75907 196.15625 L 279.75907 196.15625 C 281.737 196.15625 283.72115 195.88085 285.7116 195.33003 C 287.70204 194.77922 289.50468 193.83408 291.11957 192.4946 C 292.73446 191.15512 294.0489 189.365 295.06288 187.12419 C 296.07688 184.88337 296.58387 182.0605 296.58387 178.65545 C 296.58387 175.25042 296.07688 172.42753 295.06288 170.18672 C 294.0489 167.9459 292.73446 166.16204 291.11957 164.83508 C 289.50468 163.50812 287.70204 162.5755 285.7116 162.0372 C 283.72115 161.49891 281.737 161.22977 279.75907 161.22977 C 277.78115 161.22977 275.797 161.49891 273.80655 162.0372 C 271.8161 162.5755 270.01347 163.50812 268.39858 164.83508 C 266.7837 166.16204 265.46927 167.9459 264.45527 170.18672 C 263.44127 172.42753 262.93427 175.25042 262.93427 178.65545 C 262.93427 182.0605 263.44127 184.88337 264.45527 187.12419 C 265.46927 189.365 266.7837 191.15512 268.39858 192.4946 C 270.01347 193.83408 271.8161 194.77922 273.80655 195.33003 C 275.797 195.88085 277.78115 196.15625 279.75907 196.15625 Z M 334.7401 174.7497 L 334.7401 174.7497 C 334.7401 171.94555 334.40212 169.66721 333.72612 167.91462 C 333.05012 166.16203 332.17384 164.79127 331.09725 163.8023 C 330.02066 162.81335 328.81264 162.13736 327.47316 161.77432 C 326.13367 161.41128 324.80047 161.22977 323.4735 161.22977 C 322.14655 161.22977 320.95105 161.35495 319.88697 161.60532 C 318.8229 161.8557 317.87777 162.19369 317.05154 162.61932 C 316.22532 163.04495 315.51178 163.53316 314.9109 164.08397 C 314.31 164.63479 313.80927 165.21063 313.40867 165.81152 L 313.40867 145.68185 L 304.09495 145.68185 L 304.09495 195.40514 L 313.40867 195.40514 L 313.40867 171.67016 C 313.98453 171.06927 314.7982 170.50594 315.84977 169.98017 C 316.90133 169.45439 318.21575 169.1915 319.7931 169.1915 C 320.91975 169.1915 321.8461 169.34798 322.5722 169.66095 C 323.29826 169.9739 323.8741 170.43083 324.29973 171.03172 C 324.72536 171.6326 325.01954 172.3837 325.18228 173.28504 C 325.34502 174.18637 325.4264 175.2254 325.4264 176.40213 L 325.4264 195.40514 L 334.7401 195.40514 Z M 365.00974 176.40213 L 365.00974 176.40213 L 365.00974 195.40514 L 374.32346 195.40514 L 374.32346 174.7497 C 374.32346 171.94555 373.98547 169.66721 373.30947 167.91462 C 372.63347 166.16203 371.75093 164.79127 370.6618 163.8023 C 369.5727 162.81335 368.33965 162.13736 366.9626 161.77432 C 365.58558 161.41128 364.20856 161.22977 362.83153 161.22977 C 361.4044 161.22977 360.1213 161.36747 358.9821 161.64288 C 357.8429 161.91828 356.82267 162.28757 355.92134 162.75076 C 355.02 163.21394 354.24387 163.75223 353.5929 164.36564 C 352.94194 164.97905 352.39114 165.63626 351.94047 166.3373 L 351.94047 161.98087 L 343.6783 161.98087 L 343.6783 195.40514 L 352.99202 195.40514 L 352.99202 171.67016 C 353.56787 171.06927 354.38156 170.50594 355.4331 169.98017 C 356.48468 169.45439 357.7991 169.1915 359.37643 169.1915 C 360.5031 169.1915 361.42945 169.34798 362.15553 169.66095 C 362.8816 169.9739 363.45745 170.43083 363.88308 171.03172 C 364.3087 171.6326 364.6029 172.3837 364.76563 173.28504 C 364.92837 174.18637 365.00974 175.2254 365.00974 176.40213 Z M 415.8597 153.49336 L 401.2131 153.49336 L 401.2131 195.40514 L 410.75216 195.40514 L 410.75216 181.88521 L 415.8597 181.88521 C 418.81406 181.88521 421.4617 181.60355 423.80265 181.04022 C 426.1436 180.47689 428.134 179.61312 429.77395 178.4489 C 431.4139 177.28468 432.67197 175.81377 433.54826 174.03614 C 434.42456 172.25852 434.8627 170.14292 434.8627 167.68929 C 434.8627 165.2607 434.42456 163.15136 433.54826 161.36121 C 432.67197 159.57106 431.4139 158.0939 429.77395 156.92968 C 428.134 155.76546 426.1436 154.9017 423.80265 154.33836 C 421.4617 153.77503 418.81406 153.49336 415.8597 153.49336 Z M 415.7846 174.0737 L 410.75216 174.0737 L 410.75216 161.30488 L 415.7846 161.30488 C 419.08947 161.30488 421.4429 161.80561 422.845 162.8071 C 424.24706 163.80857 424.9481 165.43596 424.9481 167.68929 C 424.9481 168.841 424.7791 169.81742 424.4411 170.6186 C 424.1031 171.4198 423.57106 172.077 422.845 172.59026 C 422.1189 173.10352 421.1738 173.47907 420.00956 173.71692 C 418.84534 173.95478 417.437 174.0737 415.7846 174.0737 Z M 463.4048 174.97503 L 449.5844 174.97503 C 449.8598 172.62155 450.5796 170.86898 451.74383 169.71728 C 452.90806 168.56557 454.4916 167.98973 456.4946 167.98973 C 458.49755 167.98973 460.0811 168.56557 461.24534 169.71728 C 462.40956 170.86898 463.12937 172.62155 463.4048 174.97503 Z M 472.49317 184.13854 L 463.4799 184.13854 C 463.2045 185.71587 462.50345 186.94892 461.3768 187.83774 C 460.2501 188.72655 458.7479 189.17095 456.87014 189.17095 C 454.51666 189.17095 452.70776 188.41985 451.4434 186.91763 C 450.179 185.4154 449.5093 183.11204 449.4342 180.00745 L 472.6434 180.00745 L 472.6434 178.65545 C 472.6434 175.25042 472.1552 172.42128 471.17873 170.16794 C 470.2023 167.9146 468.93794 166.13075 467.38564 164.8163 C 465.83335 163.50186 464.09956 162.5755 462.1842 162.0372 C 460.2689 161.49891 458.37236 161.22977 456.4946 161.22977 C 454.56674 161.22977 452.64517 161.50517 450.72984 162.05599 C 448.8145 162.6068 447.087 163.55193 445.5472 164.89141 C 444.0074 166.2309 442.7556 168.02102 441.79166 170.26183 C 440.82774 172.50265 440.3458 175.3005 440.3458 178.65545 C 440.3458 181.96034 440.8152 184.73315 441.7541 186.97397 C 442.693 189.21478 443.9323 191.01116 445.4721 192.36316 C 447.01187 193.71516 448.7582 194.68533 450.71106 195.2737 C 452.66395 195.86207 454.64185 196.15625 456.6448 196.15625 C 457.6713 196.15625 458.74164 196.08114 459.8558 195.93092 C 460.96994 195.7807 462.0778 195.5178 463.17944 195.14226 C 464.28107 194.7667 465.34513 194.28474 466.37165 193.69637 C 467.39816 193.108 468.3245 192.36316 469.15074 191.46183 C 469.97696 190.5605 470.68425 189.50896 471.2726 188.30718 C 471.861 187.1054 472.26784 185.71587 472.49317 184.13854 Z M 493.29884 181.43455 L 498.6317 180.83366 L 498.6317 187.06785 C 497.65525 187.86904 496.5912 188.52 495.4395 189.02073 C 494.2878 189.52147 492.97337 189.77184 491.4962 189.77184 C 489.91885 189.77184 488.7734 189.45262 488.05987 188.81418 C 487.3463 188.17573 486.98954 187.26815 486.98954 186.09141 C 486.98954 184.61423 487.52157 183.52513 488.58564 182.8241 C 489.6497 182.12306 491.22076 181.65988 493.29884 181.43455 Z M 498.6317 175.05014 L 498.6317 175.05014 L 498.6317 175.80125 L 491.42107 176.40213 C 490.4446 176.47724 489.43064 176.5899 488.3791 176.74013 C 487.32753 176.89035 486.29477 177.12194 485.28077 177.4349 C 484.26677 177.74787 483.30286 178.14845 482.389 178.63668 C 481.47515 179.1249 480.674 179.7383 479.98546 180.47689 C 479.29695 181.21548 478.7524 182.10428 478.3518 183.14332 C 477.9512 184.18236 477.7509 185.39037 477.7509 186.7674 C 477.7509 188.41985 478.0326 189.84068 478.5959 191.02994 C 479.15925 192.2192 479.9291 193.18937 480.90557 193.94048 C 481.882 194.6916 483.0212 195.24866 484.3231 195.6117 C 485.62503 195.97473 487.01457 196.15625 488.49175 196.15625 C 489.9439 196.15625 491.2959 195.99977 492.54773 195.6868 C 493.7996 195.37385 494.92 194.967 495.90894 194.46626 C 496.8979 193.96552 497.76166 193.4022 498.50026 192.77627 C 499.23885 192.15034 499.83347 191.52443 500.28413 190.8985 L 500.28413 191.27405 C 500.28413 191.8499 500.3655 192.42575 500.52824 193.0016 C 500.691 193.57745 500.9977 194.09696 501.44835 194.56015 C 501.899 195.02333 502.5187 195.40514 503.30734 195.70559 C 504.096 196.00603 505.11625 196.15625 506.3681 196.15625 C 507.61995 196.15625 508.77164 196.0123 509.8232 195.72436 C 510.87475 195.43644 511.70096 195.1047 512.30185 194.72915 L 512.30185 188.41985 C 511.95133 188.62014 511.5382 188.78288 511.0625 188.90807 C 510.5868 189.03325 510.12364 189.09584 509.673 189.09584 C 508.997 189.09584 508.52754 188.9331 508.26465 188.60762 C 508.00176 188.28214 507.8703 187.79393 507.8703 187.14296 L 507.8703 174.22392 C 507.8703 172.22096 507.645 170.41832 507.1943 168.81595 C 506.74365 167.21358 505.9863 165.84908 504.9222 164.72242 C 503.85815 163.59575 502.44984 162.73198 500.69724 162.1311 C 498.94465 161.5302 496.779 161.22977 494.20017 161.22977 C 492.4726 161.22977 490.7263 161.39876 488.9612 161.73676 C 487.1961 162.07476 485.59374 162.70068 484.1541 163.61453 C 482.7145 164.52838 481.52524 165.79274 480.58635 167.40762 C 479.64746 169.02251 479.153 171.0943 479.1029 173.62304 L 487.81576 173.62304 C 487.8408 171.87044 488.2539 170.51846 489.0551 169.56706 C 489.85627 168.61565 491.27084 168.13995 493.29884 168.13995 C 494.45054 168.13995 495.3769 168.29643 496.07793 168.6094 C 496.779 168.92236 497.31726 169.37928 497.6928 169.98017 C 498.06837 170.58105 498.31874 171.30712 498.4439 172.15838 C 498.5691 173.00964 498.6317 173.97355 498.6317 175.05014 Z M 526.27244 166.56263 L 526.27244 161.98087 L 518.01026 161.98087 L 518.01026 195.40514 L 527.324 195.40514 L 527.324 171.67016 C 528 170.79386 528.9138 170.12413 530.06553 169.66095 C 531.21724 169.19776 532.6068 168.96617 534.2342 168.96617 C 535.2106 168.96617 536.09316 169.0538 536.8818 169.22906 C 537.6705 169.40432 538.3903 169.64217 539.04126 169.94261 L 539.04126 161.98087 C 538.8159 161.85569 538.3903 161.69921 537.7644 161.51143 C 537.13846 161.32365 536.23714 161.22977 535.0604 161.22977 C 532.93225 161.22977 531.15465 161.70546 529.72753 162.65687 C 528.3004 163.60828 527.14874 164.91018 526.27244 166.56263 Z M 571.93976 195.40514 L 581.8544 195.40514 L 581.8544 185.49053 L 571.93976 185.49053 Z M 554.4765 183.68787 L 554.4765 168.89106 L 564.316 168.89106 L 564.316 161.98087 L 554.4765 161.98087 L 554.4765 152.14137 L 547.11567 152.14137 L 547.11567 158.22534 L 547.11567 158.22534 C 547.11567 159.57734 546.84026 160.54125 546.28945 161.1171 C 545.73863 161.69295 544.7622 161.98087 543.3601 161.98087 L 540.3557 161.98087 L 540.3557 168.89106 L 545.1628 168.89106 L 545.1628 184.73942 C 545.1628 186.39187 545.3568 187.9191 545.7449 189.32117 C 546.133 190.72325 546.77766 191.93127 547.679 192.94527 C 548.5803 193.95927 549.7821 194.74792 551.2843 195.31125 C 552.7865 195.87459 554.65176 196.15625 556.88006 196.15625 C 557.6312 196.15625 558.3635 196.12495 559.07705 196.06236 C 559.7906 195.99977 560.4478 195.91214 561.0487 195.79947 C 561.6496 195.6868 562.1879 195.56162 562.6636 195.42392 C 563.1393 195.28622 563.51484 195.15477 563.79024 195.0296 L 563.79024 187.96918 C 563.2895 188.16948 562.6198 188.34473 561.781 188.49496 C 560.9423 188.64518 560.1098 188.7203 559.2836 188.7203 C 558.3322 188.7203 557.54354 188.61388 556.9176 188.40107 C 556.2917 188.18825 555.7972 187.86904 555.4342 187.4434 C 555.07114 187.01778 554.8208 186.492 554.6831 185.86608 C 554.54544 185.2405 554.4766 184.51491 554.4765 183.68826 Z M 554.4765 183.68787 C 554.4765 183.688 554.4765 183.68813 554.4765 183.68826 L 554.4765 183.68888 C 554.4765 183.68854 554.4765 183.6882 554.4765 183.68787 Z" fill="white"/>
      </g>
    </g>
  </g>
</svg>
